<svg width="65" height="64" viewBox="0 0 65 64" fill="none" xmlns="http://www.w3.org/2000/svg">
<path d="M16.5007 37.3333C16.5007 40.3964 17.3178 43.2093 18.952 45.772C20.5862 48.3342 22.7829 50.2564 25.542 51.5386C25.1895 51.0084 24.928 50.458 24.7573 49.8873C24.5862 49.3162 24.5007 48.7315 24.5007 48.1333C24.5007 47.0871 24.7075 46.0955 25.1213 45.1586C25.5351 44.2222 26.1162 43.3795 26.8646 42.6306L32.5007 37.0766L38.188 42.6306C38.9364 43.3795 39.5091 44.2222 39.906 45.1586C40.3024 46.0955 40.5006 47.0871 40.5006 48.1333C40.5006 48.7315 40.4151 49.3162 40.244 49.8873C40.0733 50.458 39.8118 51.0084 39.4593 51.5386C42.2184 50.2564 44.4151 48.3342 46.0493 45.772C47.6835 43.2093 48.5006 40.3964 48.5006 37.3333C48.5006 35.1111 48.0895 33.0111 47.2673 31.0333C46.4451 29.0555 45.2562 27.2888 43.7006 25.7333C42.8118 26.3111 41.8784 26.7444 40.9007 27.0333C39.9229 27.3222 38.9229 27.4666 37.9007 27.4666C35.1109 27.4666 32.7049 26.5555 30.6827 24.7333C28.6604 22.9111 27.5109 20.6324 27.234 17.8973C25.5007 19.3297 23.9673 20.8348 22.634 22.4126C21.3007 23.9904 20.1784 25.6075 19.2673 27.264C18.3562 28.9204 17.6673 30.5931 17.2007 32.282C16.734 33.9708 16.5007 35.6546 16.5007 37.3333ZM32.5007 40.8L28.7007 44.5333C28.2118 45.0222 27.834 45.5777 27.5673 46.2C27.3007 46.8222 27.1673 47.4666 27.1673 48.1333C27.1673 49.5555 27.6895 50.7777 28.734 51.8C29.7784 52.8222 31.034 53.3333 32.5007 53.3333C33.9673 53.3333 35.2229 52.8222 36.2673 51.8C37.3118 50.7777 37.834 49.5555 37.834 48.1333C37.834 47.4222 37.7006 46.7666 37.434 46.1666C37.1673 45.5666 36.7895 45.0222 36.3006 44.5333L32.5007 40.8ZM29.834 12.7693V16.8C29.834 19.0631 30.6126 20.9622 32.17 22.4973C33.7273 24.0324 35.6375 24.8 37.9007 24.8C38.7349 24.8 39.5478 24.6588 40.3393 24.3766C41.1304 24.0948 41.8782 23.6888 42.5826 23.1586L43.7313 22.2566C46.0629 23.9864 47.8851 26.1846 49.198 28.8513C50.5109 31.518 51.1673 34.3453 51.1673 37.3333C51.1673 42.5368 49.3571 46.9488 45.7366 50.5693C42.1162 54.1897 37.7042 56 32.5007 56C27.2971 56 22.8851 54.1897 19.2647 50.5693C15.6442 46.9488 13.834 42.5368 13.834 37.3333C13.834 32.7622 15.2691 28.2922 18.1393 23.9233C21.0091 19.554 24.9073 15.836 29.834 12.7693Z" fill="#0F161B"/>
</svg>
