<svg width="65" height="64" viewBox="0 0 65 64" fill="none" xmlns="http://www.w3.org/2000/svg">
<path d="M20.4999 57.3334V33.2414C18.4386 32.9267 16.6923 31.9814 15.2612 30.4054C13.8306 28.8294 13.1152 26.8994 13.1152 24.6154V6.66675H15.7819V24.6154H20.4999V6.66675H23.1666V24.6154H27.8846V6.66675H30.5512V24.6154C30.5512 26.8994 29.8359 28.8294 28.4052 30.4054C26.9741 31.9814 25.2279 32.9267 23.1666 33.2414V57.3334H20.4999ZM45.1152 57.3334V36.0001H38.5512V18.6667C38.5512 15.6956 39.3897 13.0641 41.0666 10.7721C42.7435 8.47964 44.9819 7.14541 47.7819 6.76941V57.3334H45.1152Z" fill="#0F161B"/>
</svg>
