<svg width="65" height="64" viewBox="0 0 65 64" fill="none" xmlns="http://www.w3.org/2000/svg">
<path d="M40.3144 37.4153L42.6118 29.0666L35.4531 24.1233L33.1558 32.472L40.3144 37.4153ZM12.8071 51.4306L11.6838 50.928C10.2718 50.316 9.32132 49.3015 8.83243 47.8846C8.34354 46.4673 8.41021 45.0869 9.03243 43.7433L12.8071 35.6513V51.4306ZM24.4991 55.3846C23.0324 55.3846 21.7769 54.8597 20.7324 53.81C19.688 52.7606 19.1658 51.5026 19.1658 50.036V37.436L25.0684 53.6513C25.2018 53.9966 25.33 54.3051 25.4531 54.5766C25.5762 54.8486 25.7489 55.118 25.9711 55.3846H24.4991ZM36.1298 52.7946C34.9915 53.2151 33.8873 53.1826 32.8171 52.6973C31.7469 52.212 31.0015 51.4 30.5811 50.2613L19.7558 20.5333C19.3349 19.3946 19.3758 18.2929 19.8784 17.228C20.3811 16.1631 21.2018 15.4204 22.3404 15L39.4324 8.7433C40.5711 8.32286 41.6729 8.36397 42.7378 8.86663C43.8027 9.3693 44.5453 10.1897 44.9658 11.328L55.8071 41.0566C56.2275 42.1949 56.1949 43.2964 55.7091 44.3613C55.2238 45.4262 54.412 46.1691 53.2738 46.59L36.1298 52.7946ZM35.2378 50.2053L52.2938 44C52.7382 43.8289 53.0544 43.5469 53.2424 43.154C53.4304 42.7606 53.4391 42.3417 53.2684 41.8973L42.5144 12.308C42.3433 11.8635 42.0613 11.5471 41.6684 11.3586C41.2751 11.1706 40.8562 11.1622 40.4118 11.3333L23.3711 17.5386C22.9267 17.7093 22.6104 17.9913 22.4224 18.3846C22.2344 18.778 22.2258 19.1969 22.3964 19.6413L33.1351 49.2306C33.3058 49.6751 33.5878 49.9913 33.9811 50.1793C34.3744 50.3673 34.7933 50.376 35.2378 50.2053Z" fill="#0F161B"/>
</svg>
