<svg width="65" height="64" viewBox="0 0 65 64" fill="none" xmlns="http://www.w3.org/2000/svg">
<path d="M37.3407 57.6308C37.0158 57.8156 36.6798 57.8456 36.3327 57.7207C35.9856 57.5959 35.7198 57.371 35.5353 57.0461L31.0227 48.0207C30.8378 47.6959 30.8078 47.3599 30.9327 47.0127C31.0576 46.6656 31.2825 46.3999 31.6073 46.2154C31.9318 46.031 32.2762 46.0096 32.6407 46.1514C33.0047 46.2932 33.2789 46.5265 33.4634 46.8514L37.976 55.8254C38.1609 56.1503 38.1825 56.4863 38.0407 56.8334C37.8985 57.1805 37.6651 57.4463 37.3407 57.6308ZM53.3913 57.6308C53.0669 57.8156 52.7311 57.8456 52.384 57.7207C52.0369 57.5959 51.7711 57.371 51.5867 57.0461L47.074 48.0207C46.8891 47.6959 46.8591 47.3599 46.984 47.0127C47.1089 46.6656 47.3336 46.3999 47.658 46.2154C47.9829 46.031 48.3274 46.0096 48.6914 46.1514C49.0558 46.2932 49.3302 46.5265 49.5147 46.8514L54.0274 55.8254C54.2122 56.1503 54.2336 56.4863 54.0914 56.8334C53.9496 57.1805 53.7162 57.4463 53.3913 57.6308ZM21.3407 57.6308C21.0158 57.8156 20.6713 57.8456 20.3073 57.7207C19.9429 57.5959 19.6685 57.371 19.484 57.0461L14.9713 48.0207C14.7865 47.6959 14.7651 47.3599 14.9073 47.0127C15.0491 46.6656 15.2825 46.3999 15.6073 46.2154C15.9318 46.031 16.2676 46.0096 16.6147 46.1514C16.9618 46.2932 17.2276 46.5265 17.412 46.8514L21.9247 55.8254C22.1096 56.1503 22.1396 56.4863 22.0147 56.8334C21.8898 57.1805 21.6651 57.4463 21.3407 57.6308ZM20.4993 41.3334C16.7967 41.3334 13.6489 40.0368 11.056 37.4434C8.46268 34.8505 7.16602 31.7027 7.16602 28.0001C7.16602 24.5503 8.32846 21.5674 10.6533 19.0514C12.9782 16.535 15.8893 15.0836 19.3867 14.6974C20.7062 12.1983 22.5138 10.2352 24.8093 8.80808C27.1053 7.38053 29.6687 6.66675 32.4993 6.66675C36.3282 6.66675 39.618 7.93608 42.3687 10.4747C45.1189 13.013 46.7198 16.1761 47.1714 19.9641C50.4429 20.1623 53.0378 21.3007 54.956 23.3794C56.8738 25.4581 57.8327 27.8872 57.8327 30.6667C57.8327 33.6241 56.7942 36.1412 54.7174 38.2181C52.6405 40.295 50.1234 41.3334 47.166 41.3334H20.4993ZM20.4993 38.6667H47.166C49.3745 38.6667 51.26 37.8856 52.8227 36.3234C54.3849 34.7607 55.166 32.8752 55.166 30.6667C55.166 28.4583 54.3849 26.5728 52.8227 25.0101C51.26 23.4479 49.3745 22.6667 47.166 22.6667H44.4994V21.3334C44.4994 18.0241 43.3267 15.1967 40.9813 12.8514C38.636 10.5061 35.8087 9.33341 32.4993 9.33341C30.0927 9.33341 27.9005 9.98808 25.9227 11.2974C23.9449 12.6068 22.4602 14.359 21.4687 16.5541L21.1607 17.3334H20.366C17.4567 17.4223 14.9738 18.495 12.9173 20.5514C10.8609 22.6079 9.83268 25.0907 9.83268 28.0001C9.83268 30.9539 10.872 33.4701 12.9507 35.5487C15.0293 37.6274 17.5456 38.6667 20.4993 38.6667Z" fill="#0F161B"/>
</svg>
