<svg width="65" height="64" viewBox="0 0 65 64" fill="none" xmlns="http://www.w3.org/2000/svg">
<path d="M7.16602 54.5639V51.7946C8.54735 51.6239 9.65157 51.171 10.4787 50.4359C11.3062 49.7008 12.7593 49.3332 14.838 49.3332C16.9167 49.3332 18.4567 49.7777 19.458 50.6666C20.4598 51.5555 21.8633 51.9999 23.6687 51.9999C25.4736 51.9999 26.8769 51.5555 27.8787 50.6666C28.8805 49.7777 30.4207 49.3332 32.4993 49.3332C34.578 49.3332 36.1354 49.7777 37.1714 50.6666C38.2069 51.5555 39.6273 51.9999 41.4327 51.9999C43.238 51.9999 44.6242 51.5555 45.5914 50.6666C46.5589 49.7777 48.082 49.3332 50.1607 49.3332C52.2393 49.3332 53.6925 49.7008 54.52 50.4359C55.3471 51.171 56.4514 51.6239 57.8327 51.7946V54.5639C56.2362 54.359 54.9756 53.8804 54.0507 53.1279C53.1258 52.3759 51.8291 51.9999 50.1607 51.9999C48.4922 51.9999 47.1745 52.4444 46.2074 53.3332C45.2398 54.2221 43.6482 54.6666 41.4327 54.6666C39.2171 54.6666 37.5916 54.2221 36.556 53.3332C35.52 52.4444 34.1678 51.9999 32.4993 51.9999C30.8309 51.9999 29.4958 52.4444 28.494 53.3332C27.4922 54.2221 25.8838 54.6666 23.6687 54.6666C21.4531 54.6666 19.8445 54.2221 18.8427 53.3332C17.8413 52.4444 16.5065 51.9999 14.838 51.9999C13.1696 51.9999 11.8729 52.3759 10.948 53.1279C10.0231 53.8804 8.76246 54.359 7.16602 54.5639ZM7.16602 42.5639V39.7946C8.54735 39.6239 9.65157 39.171 10.4787 38.4359C11.3062 37.7008 12.7593 37.3333 14.838 37.3333C16.9167 37.3333 18.4593 37.7777 19.466 38.6666C20.4727 39.5555 21.8736 39.9999 23.6687 39.9999C25.4736 39.9999 26.8769 39.5555 27.8787 38.6666C28.8805 37.7777 30.4207 37.3333 32.4993 37.3333C34.578 37.3333 36.1182 37.7777 37.12 38.6666C38.1218 39.5555 39.5251 39.9999 41.33 39.9999C43.1354 39.9999 44.5389 39.5555 45.5407 38.6666C46.542 37.7777 48.082 37.3333 50.1607 37.3333C52.2393 37.3333 53.6925 37.7008 54.52 38.4359C55.3471 39.171 56.4514 39.6239 57.8327 39.7946V42.5639C56.2362 42.359 54.9756 41.8804 54.0507 41.1279C53.1258 40.3759 51.8291 39.9999 50.1607 39.9999C48.4922 39.9999 47.182 40.4444 46.23 41.3333C45.278 42.2221 43.6789 42.6666 41.4327 42.6666C39.2069 42.6666 37.5787 42.2221 36.548 41.3333C35.5173 40.4444 34.1678 39.9999 32.4993 39.9999C30.8105 39.9999 29.478 40.4444 28.502 41.3333C27.526 42.2221 25.9149 42.6666 23.6687 42.6666C21.4225 42.6666 19.8062 42.2221 18.82 41.3333C17.8338 40.4444 16.5065 39.9999 14.838 39.9999C13.1696 39.9999 11.8729 40.3759 10.948 41.1279C10.0231 41.8804 8.76246 42.359 7.16602 42.5639ZM21.258 29.7846L29.8687 21.1746L25.766 17.0719C24.3336 15.6395 22.8807 14.6326 21.4073 14.0513C19.9336 13.4699 18.0651 13.1279 15.802 13.0253V9.33325C18.5882 9.43592 20.8994 9.82814 22.7354 10.5099C24.5714 11.1921 26.3969 12.441 28.212 14.2566L43.7407 29.7846C43.3954 30.0681 43.038 30.2861 42.6687 30.4386C42.2994 30.5906 41.8702 30.6666 41.3813 30.6666C40.1916 30.6666 39.0189 30.2221 37.8634 29.3333C36.7078 28.4444 34.9198 27.9999 32.4993 27.9999C30.0789 27.9999 28.2909 28.4444 27.1354 29.3333C25.9798 30.2221 24.8071 30.6666 23.6173 30.6666C23.1285 30.6666 22.6993 30.5906 22.33 30.4386C21.9607 30.2861 21.6033 30.0681 21.258 29.7846ZM44.3147 9.84592C45.8738 9.84592 47.2038 10.399 48.3047 11.5053C49.4056 12.611 49.956 13.9384 49.956 15.4873C49.956 17.0459 49.4056 18.3757 48.3047 19.4766C47.2038 20.5775 45.8738 21.1279 44.3147 21.1279C42.7556 21.1279 41.4256 20.5775 40.3247 19.4766C39.2242 18.3757 38.674 17.0459 38.674 15.4873C38.674 13.9384 39.2242 12.611 40.3247 11.5053C41.4256 10.399 42.7556 9.84592 44.3147 9.84592Z" fill="#0F161B"/>
</svg>
